<svg xmlns="http://www.w3.org/2000/svg" viewBox="0 0 1600 800" preserveAspectRatio="xMidYMid slice">
<defs>
  <linearGradient id="bg" x1="0" y1="0" x2="1" y2="1"><stop offset="0" stop-color="#a16207"/><stop offset="1" stop-color="#16a34a"/></linearGradient>
  <radialGradient id="glow" cx="78%" cy="18%" r="70%"><stop offset="0" stop-color="#fff" stop-opacity=".35"/><stop offset="1" stop-color="#fff" stop-opacity="0"/></radialGradient>
  <linearGradient id="glass" x1="0" y1="0" x2="1" y2="1"><stop offset="0" stop-color="#fff" stop-opacity=".25"/><stop offset="1" stop-color="#fff" stop-opacity=".08"/></linearGradient>
  <filter id="shadow" x="-20%" y="-20%" width="140%" height="140%"><feDropShadow dx="0" dy="18" stdDeviation="20" flood-color="#000" flood-opacity=".22"/></filter>
</defs>
<rect width="1600" height="800" fill="url(#bg)"/>
<rect width="1600" height="800" fill="url(#glow)"/>
<circle cx="1350" cy="120" r="150" fill="#fff" opacity=".08"/>
<circle cx="1240" cy="160" r="85" fill="#fff" opacity=".08"/>

<g transform="translate(900,175)" filter="url(#shadow)">
  <path d="M300 420 C250 370 160 350 80 365 V150 C170 135 250 155 300 205 Z" fill="#fff" opacity=".95"/>
  <path d="M300 420 C350 370 440 350 520 365 V150 C430 135 350 155 300 205 Z" fill="#fff" opacity=".88"/>
  <path d="M300 205 V420" stroke="#a16207" stroke-width="16" stroke-linecap="round" opacity=".6"/>
  <path d="M150 212 H250 M150 252 H265 M150 292 H230 M350 212 H450 M335 252 H450 M370 292 H450" stroke="#16a34a" stroke-width="14" stroke-linecap="round" opacity=".5"/>
  <path d="M555 118 C615 166 632 230 622 308" fill="none" stroke="#fff" stroke-width="16" stroke-linecap="round" opacity=".8"/>
  <path d="M595 92 l44 8 l-24 34" fill="#fff" opacity=".85"/>
</g>
<path d="M0 650 C240 560 360 690 590 620 C850 545 1000 720 1260 610 C1400 552 1510 580 1600 540 V800 H0 Z" fill="#000" opacity=".13"/>
</svg>