<svg xmlns="http://www.w3.org/2000/svg" viewBox="0 0 1600 800" preserveAspectRatio="xMidYMid slice">
<defs>
 <linearGradient id="g" x1="0" y1="0" x2="1" y2="1"><stop offset="0" stop-color="#92400e"/><stop offset="1" stop-color="#f59e0b"/></linearGradient>
 <radialGradient id="glow" cx="75%" cy="25%" r="70%"><stop offset="0" stop-color="#fff" stop-opacity=".35"/><stop offset="1" stop-color="#fff" stop-opacity="0"/></radialGradient>
 <pattern id="p" width="90" height="90" patternUnits="userSpaceOnUse" patternTransform="rotate(25)"><circle cx="10" cy="10" r="2" fill="#fff" opacity=".18"/><circle cx="60" cy="60" r="1.5" fill="#fff" opacity=".14"/></pattern>
</defs>
<rect width="1600" height="800" fill="url(#g)"/>
<rect width="1600" height="800" fill="url(#glow)"/>
<rect width="1600" height="800" fill="url(#p)"/>
<circle cx="1280" cy="170" r="155" fill="#fff" opacity=".09"/>
<circle cx="1320" cy="215" r="95" fill="#fff" opacity=".07"/>
<path d="M0 625 C240 540 390 690 650 585 C870 495 1060 685 1310 560 C1430 500 1510 540 1600 500 L1600 800 L0 800 Z" fill="#000" opacity=".18"/>
<rect x="78" y="78" width="260" height="80" rx="40" fill="#000" opacity=".16"/>
<text x="118" y="130" font-family="sans-serif" font-size="36" font-weight="800" fill="#fff">★</text>
<text x="180" y="129" font-family="sans-serif" font-size="28" font-weight="800" fill="#fff">이달의 챔피언</text>
<text x="80" y="555" font-family="sans-serif" font-size="70" font-weight="900" fill="#fff">도전하고 함께 올라가요</text>
<text x="80" y="620" font-family="sans-serif" font-size="28" font-weight="600" fill="#fff" opacity=".88">강릉 학생회와 함께하는 믿음 · 공동체 · 성장</text>
<circle cx="1440" cy="620" r="110" fill="#fff" opacity=".08"/>
<circle cx="1440" cy="620" r="62" fill="#fff" opacity=".1"/>
</svg>