<svg xmlns="http://www.w3.org/2000/svg" viewBox="0 0 1600 800" preserveAspectRatio="xMidYMid slice">
<defs>
  <linearGradient id="bg" x1="0" y1="0" x2="1" y2="1"><stop offset="0" stop-color="#be123c"/><stop offset="1" stop-color="#f97316"/></linearGradient>
  <radialGradient id="glow" cx="78%" cy="18%" r="70%"><stop offset="0" stop-color="#fff" stop-opacity=".35"/><stop offset="1" stop-color="#fff" stop-opacity="0"/></radialGradient>
  <linearGradient id="glass" x1="0" y1="0" x2="1" y2="1"><stop offset="0" stop-color="#fff" stop-opacity=".25"/><stop offset="1" stop-color="#fff" stop-opacity=".08"/></linearGradient>
  <filter id="shadow" x="-20%" y="-20%" width="140%" height="140%"><feDropShadow dx="0" dy="18" stdDeviation="20" flood-color="#000" flood-opacity=".22"/></filter>
</defs>
<rect width="1600" height="800" fill="url(#bg)"/>
<rect width="1600" height="800" fill="url(#glow)"/>
<circle cx="1350" cy="120" r="150" fill="#fff" opacity=".08"/>
<circle cx="1240" cy="160" r="85" fill="#fff" opacity=".08"/>

<g transform="translate(935,165) rotate(-8)" filter="url(#shadow)">
  <rect x="65" y="65" width="500" height="315" rx="36" fill="url(#glass)" stroke="#fff" stroke-opacity=".35" stroke-width="4"/>
  <rect x="105" y="110" width="285" height="22" rx="11" fill="#fff" opacity=".9"/>
  <rect x="105" y="160" width="380" height="16" rx="8" fill="#fff" opacity=".48"/>
  <rect x="105" y="198" width="340" height="16" rx="8" fill="#fff" opacity=".48"/>
  <rect x="105" y="236" width="305" height="16" rx="8" fill="#fff" opacity=".48"/>
  <circle cx="505" cy="240" r="54" fill="#fff" opacity=".16"/>
  <path d="M490 226 l40 -26 v80 l-40 -26 z" fill="#fff" opacity=".9"/>
  <path d="M530 245 q70 -35 105 0 q-35 35 -105 0" fill="#fff" opacity=".16"/>
  <path d="M625 215 q80 35 0 70 M655 188 q120 60 0 120" fill="none" stroke="#fff" stroke-width="14" stroke-linecap="round" opacity=".65"/>
</g>
<path d="M0 650 C240 560 360 690 590 620 C850 545 1000 720 1260 610 C1400 552 1510 580 1600 540 V800 H0 Z" fill="#000" opacity=".13"/>
</svg>