<svg xmlns="http://www.w3.org/2000/svg" viewBox="0 0 1600 800" preserveAspectRatio="xMidYMid slice">
<defs>
  <linearGradient id="bg" x1="0" y1="0" x2="1" y2="1"><stop offset="0" stop-color="#0369a1"/><stop offset="1" stop-color="#0ea5e9"/></linearGradient>
  <radialGradient id="glow" cx="78%" cy="18%" r="70%"><stop offset="0" stop-color="#fff" stop-opacity=".35"/><stop offset="1" stop-color="#fff" stop-opacity="0"/></radialGradient>
  <linearGradient id="glass" x1="0" y1="0" x2="1" y2="1"><stop offset="0" stop-color="#fff" stop-opacity=".25"/><stop offset="1" stop-color="#fff" stop-opacity=".08"/></linearGradient>
  <filter id="shadow" x="-20%" y="-20%" width="140%" height="140%"><feDropShadow dx="0" dy="18" stdDeviation="20" flood-color="#000" flood-opacity=".22"/></filter>
</defs>
<rect width="1600" height="800" fill="url(#bg)"/>
<rect width="1600" height="800" fill="url(#glow)"/>
<circle cx="1350" cy="120" r="150" fill="#fff" opacity=".08"/>
<circle cx="1240" cy="160" r="85" fill="#fff" opacity=".08"/>

<g transform="translate(915,165)" filter="url(#shadow)">
  <path d="M70 80 h400 a45 45 0 0 1 45 45 v180 a45 45 0 0 1 -45 45 h-220 l-110 80 v-80 h-70 a45 45 0 0 1 -45 -45 v-180 a45 45 0 0 1 45 -45 z" fill="#fff" opacity=".9"/>
  <circle cx="185" cy="215" r="18" fill="#0369a1"/><circle cx="300" cy="215" r="18" fill="#0369a1"/><circle cx="415" cy="215" r="18" fill="#0369a1"/>
  <path d="M145 285 Q300 395 455 285" fill="none" stroke="#0369a1" stroke-width="20" stroke-linecap="round" opacity=".5"/>
  <path d="M420 40 l-25 56 l62 4 l-48 45" fill="none" stroke="#fff" stroke-width="18" stroke-linecap="round" stroke-linejoin="round" opacity=".8"/>
</g>
<path d="M0 650 C240 560 360 690 590 620 C850 545 1000 720 1260 610 C1400 552 1510 580 1600 540 V800 H0 Z" fill="#000" opacity=".13"/>
</svg>