<svg xmlns="http://www.w3.org/2000/svg" viewBox="0 0 1600 800" preserveAspectRatio="xMidYMid slice">
<defs>
  <linearGradient id="bg" x1="0" y1="0" x2="1" y2="1"><stop offset="0" stop-color="#9f1239"/><stop offset="1" stop-color="#f59e0b"/></linearGradient>
  <radialGradient id="glow" cx="78%" cy="18%" r="70%"><stop offset="0" stop-color="#fff" stop-opacity=".35"/><stop offset="1" stop-color="#fff" stop-opacity="0"/></radialGradient>
  <linearGradient id="glass" x1="0" y1="0" x2="1" y2="1"><stop offset="0" stop-color="#fff" stop-opacity=".25"/><stop offset="1" stop-color="#fff" stop-opacity=".08"/></linearGradient>
  <filter id="shadow" x="-20%" y="-20%" width="140%" height="140%"><feDropShadow dx="0" dy="18" stdDeviation="20" flood-color="#000" flood-opacity=".22"/></filter>
</defs>
<rect width="1600" height="800" fill="url(#bg)"/>
<rect width="1600" height="800" fill="url(#glow)"/>
<circle cx="1350" cy="120" r="150" fill="#fff" opacity=".08"/>
<circle cx="1240" cy="160" r="85" fill="#fff" opacity=".08"/>

<g transform="translate(910,155)" filter="url(#shadow)">
  <g transform="rotate(-8 240 230)"><rect x="40" y="75" width="390" height="290" rx="34" fill="#fff" opacity=".9"/><circle cx="235" cy="220" r="86" fill="#9f1239" opacity=".12"/><text x="235" y="255" text-anchor="middle" font-family="Arial, sans-serif" font-size="130" font-weight="800" fill="#9f1239">?</text></g>
  <g transform="rotate(9 430 310)"><rect x="350" y="200" width="300" height="230" rx="30" fill="#fff" opacity=".72"/><circle cx="500" cy="315" r="58" fill="#f59e0b" opacity=".24"/><path d="M470 360 h60" stroke="#f59e0b" stroke-width="14" stroke-linecap="round" opacity=".9"/></g>
</g>
<path d="M0 650 C240 560 360 690 590 620 C850 545 1000 720 1260 610 C1400 552 1510 580 1600 540 V800 H0 Z" fill="#000" opacity=".13"/>
</svg>