<svg xmlns="http://www.w3.org/2000/svg" viewBox="0 0 1600 800" preserveAspectRatio="xMidYMid slice">
<defs>
  <linearGradient id="bg" x1="0" y1="0" x2="1" y2="1"><stop offset="0" stop-color="#1d4ed8"/><stop offset="1" stop-color="#7c3aed"/></linearGradient>
  <radialGradient id="glow" cx="78%" cy="18%" r="70%"><stop offset="0" stop-color="#fff" stop-opacity=".35"/><stop offset="1" stop-color="#fff" stop-opacity="0"/></radialGradient>
  <linearGradient id="glass" x1="0" y1="0" x2="1" y2="1"><stop offset="0" stop-color="#fff" stop-opacity=".25"/><stop offset="1" stop-color="#fff" stop-opacity=".08"/></linearGradient>
  <filter id="shadow" x="-20%" y="-20%" width="140%" height="140%"><feDropShadow dx="0" dy="18" stdDeviation="20" flood-color="#000" flood-opacity=".22"/></filter>
</defs>
<rect width="1600" height="800" fill="url(#bg)"/>
<rect width="1600" height="800" fill="url(#glow)"/>
<circle cx="1350" cy="120" r="150" fill="#fff" opacity=".08"/>
<circle cx="1240" cy="160" r="85" fill="#fff" opacity=".08"/>

<g transform="translate(905,150)" filter="url(#shadow)">
  <rect x="30" y="50" width="520" height="420" rx="40" fill="url(#glass)" stroke="#fff" stroke-opacity=".35" stroke-width="4"/>
  <rect x="30" y="50" width="520" height="92" rx="40" fill="#fff" opacity=".13"/>
  <rect x="110" y="25" width="28" height="80" rx="14" fill="#fff" opacity=".9"/>
  <rect x="442" y="25" width="28" height="80" rx="14" fill="#fff" opacity=".9"/>
  <g fill="#fff" opacity=".8">
    <rect x="100" y="185" width="92" height="72" rx="18"/><rect x="220" y="185" width="92" height="72" rx="18"/><rect x="340" y="185" width="92" height="72" rx="18"/>
    <rect x="100" y="280" width="92" height="72" rx="18"/><rect x="220" y="280" width="92" height="72" rx="18"/><rect x="340" y="280" width="92" height="72" rx="18"/>
    <rect x="100" y="375" width="92" height="72" rx="18"/><rect x="220" y="375" width="92" height="72" rx="18"/><rect x="340" y="375" width="92" height="72" rx="18"/>
  </g>
  <circle cx="265" cy="220" r="22" fill="#1d4ed8" opacity=".85"/>
  <path d="M264 218 v-18 M264 218 l18 10" stroke="#1d4ed8" stroke-width="12" stroke-linecap="round"/>
</g>
<path d="M0 650 C240 560 360 690 590 620 C850 545 1000 720 1260 610 C1400 552 1510 580 1600 540 V800 H0 Z" fill="#000" opacity=".13"/>
</svg>