<svg xmlns="http://www.w3.org/2000/svg" width="184" height="184" viewBox="0 0 184 184"><g><rect x="8" y="8" width="184" height="184" rx="28" fill="#e5f7ef"/><ellipse cx="100" cy="164" rx="42" ry="28" fill="#4d9274"/><path d="M75 145L50 184M125 145L150 184" stroke="#4d9274" stroke-width="22" stroke-linecap="round"/><circle cx="100" cy="92" r="48" fill="#d9a97e"/><path d="M50 88C52 42 74 20 100 20c30 0 51 26 49 70-13-16-29-26-49-27-20 0-36 9-50 25z" fill="#4a342b"/><circle cx="62" cy="58" r="10" fill="#4a342b"/><circle cx="138" cy="58" r="10" fill="#4a342b"/><circle cx="80" cy="90" r="4" fill="#26313d"/><circle cx="120" cy="90" r="4" fill="#26313d"/><path d="M84 112Q100 124 116 112" fill="none" stroke="#7c4a32" stroke-width="4" stroke-linecap="round"/><circle cx="151" cy="43" r="24" fill="#fff" stroke="#e6e8ee" stroke-width="2"/></g></svg>