<svg xmlns="http://www.w3.org/2000/svg" width="400" height="320" viewBox="0 0 400 320" role="img" aria-label="새로운 성경인물 캐릭터 이미지"><image x="0" y="0" width="80" height="80" href="/bible-mbti/characters-new/moses.svg"/><image x="80" y="0" width="80" height="80" href="/bible-mbti/characters-new/abraham.svg"/><image x="160" y="0" width="80" height="80" href="/bible-mbti/characters-new/joshua.svg"/><image x="240" y="0" width="80" height="80" href="/bible-mbti/characters-new/david.svg"/><image x="320" y="0" width="80" height="80" href="/bible-mbti/characters-new/joseph.svg"/><image x="0" y="80" width="80" height="80" href="/bible-mbti/characters-new/ruth.svg"/><image x="80" y="80" width="80" height="80" href="/bible-mbti/characters-new/esther.svg"/><image x="160" y="80" width="80" height="80" href="/bible-mbti/characters-new/daniel.svg"/><image x="240" y="80" width="80" height="80" href="/bible-mbti/characters-new/paul.svg"/><image x="320" y="80" width="80" height="80" href="/bible-mbti/characters-new/peter.svg"/><image x="0" y="160" width="80" height="80" href="/bible-mbti/characters-new/nehemiah.svg"/><image x="80" y="160" width="80" height="80" href="/bible-mbti/characters-new/timothy.svg"/><image x="160" y="160" width="80" height="80" href="/bible-mbti/characters-new/barnabas.svg"/><image x="240" y="160" width="80" height="80" href="/bible-mbti/characters-new/mary.svg"/><image x="320" y="160" width="80" height="80" href="/bible-mbti/characters-new/elijah.svg"/><image x="0" y="240" width="80" height="80" href="/bible-mbti/characters-new/isaiah.svg"/><image x="80" y="240" width="80" height="80" href="/bible-mbti/characters-new/jeremiah.svg"/><image x="160" y="240" width="80" height="80" href="/bible-mbti/characters-new/samuel.svg"/><image x="240" y="240" width="80" height="80" href="/bible-mbti/characters-new/martha.svg"/><image x="320" y="240" width="80" height="80" href="/bible-mbti/characters-new/john.svg"/></svg>